<mxfile host="app.diagrams.net" modified="2024-01-03T19:18:27.653Z" agent="Mozilla/5.0 (X11; Linux x86_64) AppleWebKit/537.36 (KHTML, like Gecko) Chrome/120.0.0.0 Safari/537.36" etag="TFL0SkV79th5mIoBaMae" version="22.1.16" type="device">
  <diagram name="Page-1" id="D2eR_OOv5-D7eLT7RXdg">
    <mxGraphModel dx="826" dy="501" grid="1" gridSize="10" guides="1" tooltips="1" connect="1" arrows="1" fold="1" page="1" pageScale="1" pageWidth="827" pageHeight="1169" math="0" shadow="0">
      <root>
        <mxCell id="0" />
        <mxCell id="1" parent="0" />
        <mxCell id="sbuT9cE4En6_RjDf80ow-1" value="" style="rounded=0;whiteSpace=wrap;html=1;" vertex="1" parent="1">
          <mxGeometry x="151" y="70" width="300" height="180" as="geometry" />
        </mxCell>
        <mxCell id="sbuT9cE4En6_RjDf80ow-2" value="Report-Card Parser" style="text;html=1;strokeColor=none;fillColor=none;align=center;verticalAlign=middle;whiteSpace=wrap;rounded=0;" vertex="1" parent="1">
          <mxGeometry x="151" y="210" width="100" height="30" as="geometry" />
        </mxCell>
        <mxCell id="sbuT9cE4En6_RjDf80ow-3" value="Actor" style="shape=umlActor;verticalLabelPosition=bottom;verticalAlign=top;html=1;outlineConnect=0;" vertex="1" parent="1">
          <mxGeometry x="31" y="30" width="30" height="60" as="geometry" />
        </mxCell>
        <mxCell id="sbuT9cE4En6_RjDf80ow-11" style="edgeStyle=orthogonalEdgeStyle;rounded=0;orthogonalLoop=1;jettySize=auto;html=1;" edge="1" parent="1" source="sbuT9cE4En6_RjDf80ow-4" target="sbuT9cE4En6_RjDf80ow-1">
          <mxGeometry relative="1" as="geometry" />
        </mxCell>
        <mxCell id="sbuT9cE4En6_RjDf80ow-4" value="Actor" style="shape=umlActor;verticalLabelPosition=bottom;verticalAlign=top;html=1;outlineConnect=0;" vertex="1" parent="1">
          <mxGeometry x="31" y="130" width="30" height="60" as="geometry" />
        </mxCell>
        <mxCell id="sbuT9cE4En6_RjDf80ow-5" value="Actor" style="shape=umlActor;verticalLabelPosition=bottom;verticalAlign=top;html=1;outlineConnect=0;" vertex="1" parent="1">
          <mxGeometry x="31" y="220" width="30" height="60" as="geometry" />
        </mxCell>
        <mxCell id="sbuT9cE4En6_RjDf80ow-9" style="edgeStyle=orthogonalEdgeStyle;rounded=0;orthogonalLoop=1;jettySize=auto;html=1;entryX=-0.007;entryY=0.367;entryDx=0;entryDy=0;entryPerimeter=0;" edge="1" parent="1" source="sbuT9cE4En6_RjDf80ow-3" target="sbuT9cE4En6_RjDf80ow-1">
          <mxGeometry relative="1" as="geometry" />
        </mxCell>
        <mxCell id="sbuT9cE4En6_RjDf80ow-19" style="edgeStyle=orthogonalEdgeStyle;rounded=0;orthogonalLoop=1;jettySize=auto;html=1;exitX=1;exitY=0.25;exitDx=0;exitDy=0;entryX=0;entryY=0.25;entryDx=0;entryDy=0;" edge="1" parent="1" source="sbuT9cE4En6_RjDf80ow-12" target="sbuT9cE4En6_RjDf80ow-13">
          <mxGeometry relative="1" as="geometry" />
        </mxCell>
        <mxCell id="sbuT9cE4En6_RjDf80ow-12" value="/report-card/&amp;lt;path&amp;gt;" style="rounded=1;whiteSpace=wrap;html=1;" vertex="1" parent="1">
          <mxGeometry x="165" y="80" width="126" height="30" as="geometry" />
        </mxCell>
        <mxCell id="sbuT9cE4En6_RjDf80ow-17" style="edgeStyle=orthogonalEdgeStyle;rounded=0;orthogonalLoop=1;jettySize=auto;html=1;exitX=0.75;exitY=1;exitDx=0;exitDy=0;entryX=0.75;entryY=0;entryDx=0;entryDy=0;" edge="1" parent="1" source="sbuT9cE4En6_RjDf80ow-13" target="sbuT9cE4En6_RjDf80ow-16">
          <mxGeometry relative="1" as="geometry" />
        </mxCell>
        <mxCell id="sbuT9cE4En6_RjDf80ow-20" style="edgeStyle=orthogonalEdgeStyle;rounded=0;orthogonalLoop=1;jettySize=auto;html=1;exitX=0;exitY=0.75;exitDx=0;exitDy=0;entryX=1;entryY=0.75;entryDx=0;entryDy=0;" edge="1" parent="1" source="sbuT9cE4En6_RjDf80ow-13" target="sbuT9cE4En6_RjDf80ow-12">
          <mxGeometry relative="1" as="geometry" />
        </mxCell>
        <mxCell id="sbuT9cE4En6_RjDf80ow-13" value="ReportCardParser" style="rounded=1;whiteSpace=wrap;html=1;" vertex="1" parent="1">
          <mxGeometry x="331" y="80" width="110" height="30" as="geometry" />
        </mxCell>
        <mxCell id="sbuT9cE4En6_RjDf80ow-18" style="edgeStyle=orthogonalEdgeStyle;rounded=0;orthogonalLoop=1;jettySize=auto;html=1;exitX=0.25;exitY=0;exitDx=0;exitDy=0;entryX=0.25;entryY=1;entryDx=0;entryDy=0;" edge="1" parent="1" source="sbuT9cE4En6_RjDf80ow-16" target="sbuT9cE4En6_RjDf80ow-13">
          <mxGeometry relative="1" as="geometry" />
        </mxCell>
        <mxCell id="sbuT9cE4En6_RjDf80ow-24" style="edgeStyle=orthogonalEdgeStyle;rounded=0;orthogonalLoop=1;jettySize=auto;html=1;exitX=0;exitY=0.75;exitDx=0;exitDy=0;entryX=1;entryY=0.75;entryDx=0;entryDy=0;" edge="1" parent="1" source="sbuT9cE4En6_RjDf80ow-16" target="sbuT9cE4En6_RjDf80ow-21">
          <mxGeometry relative="1" as="geometry" />
        </mxCell>
        <mxCell id="sbuT9cE4En6_RjDf80ow-16" value="PyteressectParser" style="rounded=1;whiteSpace=wrap;html=1;" vertex="1" parent="1">
          <mxGeometry x="331" y="160" width="110" height="30" as="geometry" />
        </mxCell>
        <mxCell id="sbuT9cE4En6_RjDf80ow-23" style="edgeStyle=orthogonalEdgeStyle;rounded=0;orthogonalLoop=1;jettySize=auto;html=1;exitX=1;exitY=0.25;exitDx=0;exitDy=0;entryX=0;entryY=0.25;entryDx=0;entryDy=0;" edge="1" parent="1" source="sbuT9cE4En6_RjDf80ow-21" target="sbuT9cE4En6_RjDf80ow-16">
          <mxGeometry relative="1" as="geometry" />
        </mxCell>
        <mxCell id="sbuT9cE4En6_RjDf80ow-21" value="/text/&amp;lt;path&amp;gt;" style="rounded=1;whiteSpace=wrap;html=1;" vertex="1" parent="1">
          <mxGeometry x="165" y="160" width="126" height="30" as="geometry" />
        </mxCell>
        <mxCell id="sbuT9cE4En6_RjDf80ow-33" style="edgeStyle=orthogonalEdgeStyle;rounded=0;orthogonalLoop=1;jettySize=auto;html=1;entryX=-0.013;entryY=0.644;entryDx=0;entryDy=0;entryPerimeter=0;" edge="1" parent="1" source="sbuT9cE4En6_RjDf80ow-5" target="sbuT9cE4En6_RjDf80ow-1">
          <mxGeometry relative="1" as="geometry" />
        </mxCell>
        <mxCell id="sbuT9cE4En6_RjDf80ow-37" style="edgeStyle=orthogonalEdgeStyle;rounded=0;orthogonalLoop=1;jettySize=auto;html=1;" edge="1" parent="1" source="sbuT9cE4En6_RjDf80ow-34" target="sbuT9cE4En6_RjDf80ow-36">
          <mxGeometry relative="1" as="geometry" />
        </mxCell>
        <mxCell id="sbuT9cE4En6_RjDf80ow-34" value="Image Path" style="rounded=0;whiteSpace=wrap;html=1;" vertex="1" parent="1">
          <mxGeometry x="610" y="20" width="120" height="30" as="geometry" />
        </mxCell>
        <mxCell id="sbuT9cE4En6_RjDf80ow-36" value="Load image" style="shape=note;whiteSpace=wrap;html=1;backgroundOutline=1;darkOpacity=0.05;" vertex="1" parent="1">
          <mxGeometry x="630" y="80" width="80" height="100" as="geometry" />
        </mxCell>
        <mxCell id="sbuT9cE4En6_RjDf80ow-42" style="edgeStyle=orthogonalEdgeStyle;rounded=0;orthogonalLoop=1;jettySize=auto;html=1;" edge="1" parent="1" source="sbuT9cE4En6_RjDf80ow-38" target="sbuT9cE4En6_RjDf80ow-40">
          <mxGeometry relative="1" as="geometry" />
        </mxCell>
        <mxCell id="sbuT9cE4En6_RjDf80ow-38" value="Pre Process Image" style="shape=parallelogram;perimeter=parallelogramPerimeter;whiteSpace=wrap;html=1;fixedSize=1;" vertex="1" parent="1">
          <mxGeometry x="601" y="220" width="120" height="60" as="geometry" />
        </mxCell>
        <mxCell id="sbuT9cE4En6_RjDf80ow-39" style="edgeStyle=orthogonalEdgeStyle;rounded=0;orthogonalLoop=1;jettySize=auto;html=1;entryX=0.575;entryY=-0.017;entryDx=0;entryDy=0;entryPerimeter=0;" edge="1" parent="1" source="sbuT9cE4En6_RjDf80ow-36" target="sbuT9cE4En6_RjDf80ow-38">
          <mxGeometry relative="1" as="geometry" />
        </mxCell>
        <mxCell id="sbuT9cE4En6_RjDf80ow-44" style="edgeStyle=orthogonalEdgeStyle;rounded=0;orthogonalLoop=1;jettySize=auto;html=1;" edge="1" parent="1" source="sbuT9cE4En6_RjDf80ow-40" target="sbuT9cE4En6_RjDf80ow-43">
          <mxGeometry relative="1" as="geometry" />
        </mxCell>
        <mxCell id="sbuT9cE4En6_RjDf80ow-40" value="Extract Text from Image" style="shape=parallelogram;perimeter=parallelogramPerimeter;whiteSpace=wrap;html=1;fixedSize=1;" vertex="1" parent="1">
          <mxGeometry x="601" y="340" width="120" height="60" as="geometry" />
        </mxCell>
        <mxCell id="sbuT9cE4En6_RjDf80ow-46" style="edgeStyle=orthogonalEdgeStyle;rounded=0;orthogonalLoop=1;jettySize=auto;html=1;" edge="1" parent="1" source="sbuT9cE4En6_RjDf80ow-43" target="sbuT9cE4En6_RjDf80ow-45">
          <mxGeometry relative="1" as="geometry" />
        </mxCell>
        <mxCell id="sbuT9cE4En6_RjDf80ow-43" value="Post prossess the extracted text" style="shape=parallelogram;perimeter=parallelogramPerimeter;whiteSpace=wrap;html=1;fixedSize=1;" vertex="1" parent="1">
          <mxGeometry x="390" y="340" width="120" height="60" as="geometry" />
        </mxCell>
        <mxCell id="sbuT9cE4En6_RjDf80ow-45" value="Return Output" style="shape=note;whiteSpace=wrap;html=1;backgroundOutline=1;darkOpacity=0.05;" vertex="1" parent="1">
          <mxGeometry x="241" y="320" width="80" height="100" as="geometry" />
        </mxCell>
      </root>
    </mxGraphModel>
  </diagram>
</mxfile>
